<svg width="24" height="24" viewBox="0 0 24 24" fill="none" xmlns="http://www.w3.org/2000/svg">
<g clip-path="url(#clip0_73_204)">
<path d="M23.8521 5.00058C23.7072 4.8019 23.4758 4.68433 23.23 4.68433H5.90382C5.87025 4.68433 5.83673 4.68637 5.80445 4.69072L5.0914 2.63523C5.01749 2.42265 4.85475 2.25319 4.6456 2.17086L1.05196 0.759139C0.655906 0.604078 0.208984 0.798616 0.0534395 1.19419C-0.101837 1.58998 0.092648 2.03717 0.488492 2.19272L3.75235 3.47489L7.74736 14.9903C7.57103 15.0517 7.42161 15.187 7.35356 15.3763L6.19847 18.5849C6.12768 18.7816 6.15685 19.0002 6.27732 19.1712C6.39763 19.3422 6.59329 19.4439 6.80223 19.4439H7.3954C7.02781 19.853 6.80223 20.3917 6.80223 20.9841C6.80223 22.258 7.83873 23.2943 9.11241 23.2943C10.3861 23.2943 11.4226 22.258 11.4226 20.9841C11.4226 20.3917 11.197 19.853 10.8294 19.4439H15.8661C15.4984 19.853 15.2727 20.3917 15.2727 20.9841C15.2727 22.258 16.309 23.2943 17.583 23.2943C18.8569 23.2943 19.8932 22.258 19.8932 20.9841C19.8932 20.3917 19.6676 19.853 19.3 19.4439H20.0215C20.376 19.4439 20.6632 19.1566 20.6632 18.8022C20.6632 18.4478 20.3759 18.1605 20.0215 18.1605H7.7153L8.43067 16.1735C8.52305 16.2124 8.62284 16.2353 8.72731 16.2353H20.0214C20.3562 16.2353 20.6525 16.0191 20.7545 15.7004L23.9631 5.68957C24.0384 5.45518 23.997 5.19925 23.8521 5.00058ZM9.11241 22.0108C8.54614 22.0108 8.08568 21.5503 8.08568 20.9841C8.08568 20.4178 8.54614 19.9573 9.11241 19.9573C9.67867 19.9573 10.1391 20.4178 10.1391 20.9841C10.1391 21.5503 9.67867 22.0108 9.11241 22.0108ZM17.5829 22.0108C17.0167 22.0108 16.5562 21.5503 16.5562 20.9841C16.5562 20.4178 17.0167 19.9573 17.5829 19.9573C18.1491 19.9573 18.6097 20.4178 18.6097 20.9841C18.6097 21.5503 18.1491 22.0108 17.5829 22.0108ZM21.6194 7.9571H17.6899V6.22447H22.1747L21.6194 7.9571ZM20.4879 11.4865H17.6899V9.49719H21.1256L20.4879 11.4865ZM12.5988 11.4865V9.49719H16.1498V11.4865H12.5988ZM16.1498 13.0268V14.6952H12.5988V13.0268H16.1498ZM7.47189 9.49719H11.0589V11.4865H8.16211L7.47189 9.49719ZM12.5988 7.9571V6.22447H16.1498V7.9571H12.5988ZM11.0588 6.22447V7.9571H6.93742L6.33635 6.22447H11.0588ZM8.69653 13.0268H11.0588V14.6952H9.27531L8.69653 13.0268ZM17.6899 14.6953V13.0268H19.9946L19.4599 14.6953H17.6899Z" fill="white"/>
</g>
<defs>
<clipPath id="clip0_73_204">
<rect width="24" height="24" fill="white"/>
</clipPath>
</defs>
</svg>
