<svg width="21" height="21" viewBox="0 0 21 21" fill="none" xmlns="http://www.w3.org/2000/svg">
<path d="M11.375 18.375V20.125H9.625V18.375H2.625C2.39294 18.375 2.17038 18.2828 2.00628 18.1187C1.84219 17.9546 1.75 17.7321 1.75 17.5V3.5C1.75 3.26794 1.84219 3.04538 2.00628 2.88128C2.17038 2.71719 2.39294 2.625 2.625 2.625H7.875C8.37164 2.62441 8.86269 2.72979 9.31536 2.93409C9.76802 3.1384 10.1719 3.43693 10.5 3.80975C10.8281 3.43693 11.232 3.1384 11.6846 2.93409C12.1373 2.72979 12.6284 2.62441 13.125 2.625H18.375C18.6071 2.625 18.8296 2.71719 18.9937 2.88128C19.1578 3.04538 19.25 3.26794 19.25 3.5V17.5C19.25 17.7321 19.1578 17.9546 18.9937 18.1187C18.8296 18.2828 18.6071 18.375 18.375 18.375H11.375ZM17.5 16.625V4.375H13.125C12.6609 4.375 12.2158 4.55938 11.8876 4.88757C11.5594 5.21575 11.375 5.66087 11.375 6.125V16.625H17.5ZM9.625 16.625V6.125C9.625 5.66087 9.44063 5.21575 9.11244 4.88757C8.78425 4.55938 8.33913 4.375 7.875 4.375H3.5V16.625H9.625Z" fill="#DF3030"/>
</svg>
