<svg width="41" height="43" viewBox="0 0 41 43" fill="none" xmlns="http://www.w3.org/2000/svg">
<g clip-path="url(#clip0_1094_485)">
<path d="M36.3662 43H4.63384C2.07454 43 0 41.046 0 38.6368V12.5414L36.3662 12.5972C38.9255 12.5972 41 14.5511 41 16.9603V38.6368C41 41.046 38.9255 43 36.3662 43Z" fill="#A61313"/>
<path d="M35.7579 40.9253H5.21487C4.36521 40.9253 3.55035 40.5781 2.94956 39.9602C2.34876 39.3423 2.01123 38.5043 2.01123 37.6304V14.4985H35.7579C36.6075 14.4985 37.4224 14.8456 38.0232 15.4635C38.624 16.0814 38.9615 16.9195 38.9615 17.7933V37.6304C38.9615 38.5043 38.624 39.3423 38.0232 39.9602C37.4224 40.5781 36.6075 40.9253 35.7579 40.9253V40.9253Z" fill="#D0D0D0"/>
<path d="M34.5896 40.9129H5.21186C4.363 40.9129 3.54891 40.5661 2.94867 39.9487C2.34844 39.3314 2.01123 38.4942 2.01123 37.6211V14.5078H34.5896C35.4385 14.5078 36.2526 14.8546 36.8528 15.4719C37.4531 16.0892 37.7903 16.9265 37.7903 17.7995V37.618C37.7907 38.0506 37.7082 38.479 37.5475 38.8787C37.3868 39.2784 37.1511 39.6417 36.8539 39.9476C36.5566 40.2536 36.2037 40.4964 35.8152 40.662C35.4266 40.8276 35.0102 40.9129 34.5896 40.9129V40.9129Z" fill="white"/>
<path d="M32.9788 5.85886H4.56158C3.96294 5.85845 3.37008 5.97931 2.81686 6.21455C2.26364 6.44978 1.76088 6.79478 1.3373 7.22984C0.91372 7.66491 0.577607 8.18152 0.348152 8.75017C0.118697 9.31883 0.000395272 9.9284 0 10.5441L0 13.8513H37.4561V10.4636C37.4561 9.24232 36.9844 8.0711 36.1448 7.20755C35.3051 6.34399 34.1663 5.85886 32.9788 5.85886Z" fill="#A61313"/>
<path d="M35.3183 11.086V12.0769H3.41735C3.08036 12.0769 2.75717 11.9392 2.51889 11.6942C2.2806 11.4491 2.14673 11.1167 2.14673 10.7701V10.3273C2.14633 10.0568 2.19785 9.7888 2.29834 9.53878C2.39882 9.28875 2.54629 9.06158 2.7323 8.87027C2.91831 8.67897 3.13919 8.5273 3.3823 8.42396C3.62541 8.32062 3.88595 8.26763 4.14901 8.26804H32.5753C32.9354 8.26763 33.292 8.34022 33.6248 8.48165C33.9576 8.62308 34.26 8.83059 34.5147 9.0923C34.7695 9.35401 34.9715 9.6648 35.1094 10.0069C35.2473 10.349 35.3183 10.7157 35.3183 11.086V11.086Z" fill="#D0D0D0"/>
<path d="M31.5004 12.0769H30.5158L29.2843 10.6865H10.2612L8.77982 12.0769H7.7019L8.10537 11.6991L9.18329 10.6865L11.7787 8.25566L19.2308 1.27892C19.4234 1.09836 19.6486 0.958569 19.8937 0.867541C20.1388 0.776512 20.3989 0.736024 20.6592 0.748389C20.9195 0.760754 21.1749 0.825729 21.4108 0.939604C21.6467 1.05348 21.8584 1.21403 22.034 1.41207L28.1101 8.26804L30.2659 10.6989L31.0638 11.6L31.5004 12.0769Z" fill="white"/>
<path d="M29.0947 8.26806L22.582 0.910432C22.3423 0.639656 22.053 0.420123 21.7308 0.264382C21.4085 0.108642 21.0595 0.0197473 20.7039 0.00277969C20.3482 -0.0141879 19.9927 0.0411042 19.6578 0.165496C19.3229 0.289887 19.0151 0.480938 18.7521 0.72773L10.7008 8.26806L8.1084 10.702H10.2612L12.8597 8.26806L19.7186 1.83323C19.9503 1.61492 20.2535 1.49441 20.5677 1.4957H20.6249C20.7903 1.50273 20.9528 1.54359 21.1027 1.6159C21.2526 1.68821 21.387 1.79052 21.4981 1.91684L27.1255 8.26806L29.2844 10.702L30.5158 12.0769H32.482L29.0947 8.26806Z" fill="#45B755"/>
<path d="M30.5158 12.0893H8.77979L10.2612 10.6989H29.2813L30.5158 12.0893Z" fill="#CEE7CA"/>
<path d="M10.2612 10.702L8.77986 12.0893H6.62402L8.10842 10.702H10.2612Z" fill="#99CF93"/>
<path d="M29.2815 10.6989L30.516 12.0893H32.4821L31.2506 10.702L29.2815 10.6989Z" fill="#99CF93"/>
</g>
<defs>
<clipPath id="clip0_1094_485">
<rect width="41" height="43" fill="white"/>
</clipPath>
</defs>
</svg>
