<svg width="41" height="49" viewBox="0 0 41 49" fill="none" xmlns="http://www.w3.org/2000/svg">
<path d="M21.1151 0H7.22715C3.23571 0 0 3.26519 0 7.29301V41.707C0 45.7348 3.23571 49 7.22715 49H21.1151C25.1066 49 28.3423 45.7348 28.3423 41.707V7.29301C28.3423 3.26519 25.1066 0 21.1151 0Z" fill="#808080"/>
<path d="M20.9044 1.91135H7.49469C4.34949 1.91135 1.7998 4.48427 1.7998 7.65812V41.4784C1.7998 44.6522 4.34949 47.2251 7.49469 47.2251H20.9044C24.0496 47.2251 26.5993 44.6522 26.5993 41.4784V7.65812C26.5993 4.48427 24.0496 1.91135 20.9044 1.91135Z" fill="#FFE4E5"/>
<path d="M19.5515 1.91135H7.49469C4.34949 1.91135 1.7998 4.48427 1.7998 7.65812V41.4784C1.7998 44.6522 4.34949 47.2251 7.49469 47.2251H19.5515C22.6967 47.2251 25.2464 44.6522 25.2464 41.4784V7.65812C25.2464 4.48427 22.6967 1.91135 19.5515 1.91135Z" fill="white"/>
<path d="M14.1994 1.27002H6.64819L7.55119 3.09883C7.69324 3.38526 7.91154 3.6261 8.18163 3.79434C8.45172 3.96258 8.76291 4.05157 9.08032 4.05133H19.3122C19.6296 4.05157 19.9408 3.96258 20.2109 3.79434C20.481 3.6261 20.6993 3.38526 20.8413 3.09883L21.7349 1.27002H14.1994Z" fill="#808080"/>
<path d="M38.3603 15.0813H14.6715C13.2136 15.0813 12.0317 16.274 12.0317 17.7452V33.0487C12.0317 34.5199 13.2136 35.7126 14.6715 35.7126H38.3603C39.8183 35.7126 41.0001 34.5199 41.0001 33.0487V17.7452C41.0001 16.274 39.8183 15.0813 38.3603 15.0813Z" fill="#45B755"/>
<path d="M38.2974 16.9006H14.6683C14.1366 16.9006 13.7056 17.3356 13.7056 17.8722V32.8106C13.7056 33.3472 14.1366 33.7822 14.6683 33.7822H38.2974C38.8291 33.7822 39.2602 33.3472 39.2602 32.8106V17.8722C39.2602 17.3356 38.8291 16.9006 38.2974 16.9006Z" fill="#CEE7CA"/>
<path d="M37.3313 16.9323H14.5675C14.0358 16.9323 13.6047 17.3673 13.6047 17.9039V32.8423C13.6047 33.3789 14.0358 33.8139 14.5675 33.8139H37.3313C37.863 33.8139 38.2941 33.3789 38.2941 32.8423V17.9039C38.2941 17.3673 37.863 16.9323 37.3313 16.9323Z" fill="white"/>
<path d="M39.9177 19.3898H13.114V21.7901H39.9177V19.3898Z" fill="#45B755"/>
<path d="M22.1787 24.0444H17.6951C17.0974 24.0444 16.6128 24.5334 16.6128 25.1366V25.2763C16.6128 25.8795 17.0974 26.3685 17.6951 26.3685H22.1787C22.7764 26.3685 23.261 25.8795 23.261 25.2763V25.1366C23.261 24.5334 22.7764 24.0444 22.1787 24.0444Z" fill="#CEE7CA"/>
<path d="M28.4305 28.6227H17.7235C17.1101 28.6227 16.6128 29.1245 16.6128 29.7435V29.8896C16.6128 30.5086 17.1101 31.0104 17.7235 31.0104H28.4305C29.0439 31.0104 29.5411 30.5086 29.5411 29.8896V29.7435C29.5411 29.1245 29.0439 28.6227 28.4305 28.6227Z" fill="#CEE7CA"/>
</svg>
